<svg width="204" height="38" viewBox="0 0 204 38" fill="none" xmlns="http://www.w3.org/2000/svg">
<g filter="url(#filter0_d_5_5)">
<path d="M13.2234 12.8555L8.58281 27H4.84453L11.1844 9.9375H13.5633L13.2234 12.8555ZM17.0789 27L12.4266 12.8555L12.0516 9.9375H14.4539L20.8289 27H17.0789ZM16.868 20.6484V23.4023H7.85625V20.6484H16.868ZM27.5297 17.0273V27H24.1547V14.3203H27.3187L27.5297 17.0273ZM27.0375 20.2148H26.1234C26.1234 19.2773 26.2445 18.4336 26.4867 17.6836C26.7289 16.9258 27.0687 16.2812 27.5062 15.75C27.9437 15.2109 28.4633 14.8008 29.0648 14.5195C29.6742 14.2305 30.3539 14.0859 31.1039 14.0859C31.6977 14.0859 32.2406 14.1719 32.7328 14.3438C33.225 14.5156 33.6469 14.7891 33.9984 15.1641C34.3578 15.5391 34.6312 16.0352 34.8187 16.6523C35.0141 17.2695 35.1117 18.0234 35.1117 18.9141V27H31.7133V18.9023C31.7133 18.3398 31.6352 17.9023 31.4789 17.5898C31.3227 17.2773 31.0922 17.0586 30.7875 16.9336C30.4906 16.8008 30.1234 16.7344 29.6859 16.7344C29.2328 16.7344 28.8383 16.8242 28.5023 17.0039C28.1742 17.1836 27.9008 17.4336 27.682 17.7539C27.4711 18.0664 27.3109 18.4336 27.2016 18.8555C27.0922 19.2773 27.0375 19.7305 27.0375 20.2148ZM47.5664 24.2344V9H50.9648V27H47.9062L47.5664 24.2344ZM39.5508 20.8125V20.5664C39.5508 19.5977 39.6602 18.7188 39.8789 17.9297C40.0977 17.1328 40.418 16.4492 40.8398 15.8789C41.2617 15.3086 41.7812 14.8672 42.3984 14.5547C43.0156 14.2422 43.7187 14.0859 44.5078 14.0859C45.25 14.0859 45.8984 14.2422 46.4531 14.5547C47.0156 14.8672 47.4922 15.3125 47.8828 15.8906C48.2812 16.4609 48.6016 17.1367 48.8437 17.918C49.0859 18.6914 49.2617 19.5391 49.3711 20.4609V21C49.2617 21.8828 49.0859 22.7031 48.8437 23.4609C48.6016 24.2188 48.2812 24.8828 47.8828 25.4531C47.4922 26.0156 47.0156 26.4531 46.4531 26.7656C45.8906 27.0781 45.2344 27.2344 44.4844 27.2344C43.6953 27.2344 42.9922 27.0742 42.375 26.7539C41.7656 26.4336 41.25 25.9844 40.8281 25.4062C40.4141 24.8281 40.0977 24.1484 39.8789 23.3672C39.6602 22.5859 39.5508 21.7344 39.5508 20.8125ZM42.9258 20.5664V20.8125C42.9258 21.3359 42.9648 21.8242 43.043 22.2773C43.1289 22.7305 43.2656 23.1328 43.4531 23.4844C43.6484 23.8281 43.8984 24.0977 44.2031 24.293C44.5156 24.4805 44.8945 24.5742 45.3398 24.5742C45.918 24.5742 46.3945 24.4453 46.7695 24.1875C47.1445 23.9219 47.4297 23.5586 47.625 23.0977C47.8281 22.6367 47.9453 22.1055 47.9766 21.5039V19.9688C47.9531 19.4766 47.8828 19.0352 47.7656 18.6445C47.6562 18.2461 47.4922 17.9062 47.2734 17.625C47.0625 17.3438 46.7969 17.125 46.4766 16.9688C46.1641 16.8125 45.793 16.7344 45.3633 16.7344C44.9258 16.7344 44.5508 16.8359 44.2383 17.0391C43.9258 17.2344 43.6719 17.5039 43.4766 17.8477C43.2891 18.1914 43.1484 18.5977 43.0547 19.0664C42.9687 19.5273 42.9258 20.0273 42.9258 20.5664ZM62.8453 24.1406V18.4922C62.8453 18.0859 62.7789 17.7383 62.6461 17.4492C62.5133 17.1523 62.3062 16.9219 62.025 16.7578C61.7516 16.5938 61.3961 16.5117 60.9586 16.5117C60.5836 16.5117 60.2594 16.5781 59.9859 16.7109C59.7125 16.8359 59.5016 17.0195 59.3531 17.2617C59.2047 17.4961 59.1305 17.7734 59.1305 18.0938H55.7555C55.7555 17.5547 55.8805 17.043 56.1305 16.5586C56.3805 16.0742 56.7437 15.6484 57.2203 15.2812C57.6969 14.9062 58.2633 14.6133 58.9195 14.4023C59.5836 14.1914 60.3258 14.0859 61.1461 14.0859C62.1305 14.0859 63.0055 14.25 63.7711 14.5781C64.5367 14.9062 65.1383 15.3984 65.5758 16.0547C66.0211 16.7109 66.2437 17.5312 66.2437 18.5156V23.9414C66.2437 24.6367 66.2867 25.207 66.3727 25.6523C66.4586 26.0898 66.5836 26.4727 66.7477 26.8008V27H63.3375C63.1734 26.6562 63.0484 26.2266 62.9625 25.7109C62.8844 25.1875 62.8453 24.6641 62.8453 24.1406ZM63.2906 19.2773L63.3141 21.1875H61.4273C60.982 21.1875 60.5953 21.2383 60.2672 21.3398C59.9391 21.4414 59.6695 21.5859 59.4586 21.7734C59.2477 21.9531 59.0914 22.1641 58.9898 22.4062C58.8961 22.6484 58.8492 22.9141 58.8492 23.2031C58.8492 23.4922 58.9156 23.7539 59.0484 23.9883C59.1812 24.2148 59.3727 24.3945 59.6227 24.5273C59.8727 24.6523 60.1656 24.7148 60.5016 24.7148C61.0094 24.7148 61.4508 24.6133 61.8258 24.4102C62.2008 24.207 62.4898 23.957 62.693 23.6602C62.9039 23.3633 63.0133 23.082 63.0211 22.8164L63.9117 24.2461C63.7867 24.5664 63.6148 24.8984 63.3961 25.2422C63.1852 25.5859 62.9156 25.9102 62.5875 26.2148C62.2594 26.5117 61.8648 26.7578 61.4039 26.9531C60.943 27.1406 60.3961 27.2344 59.7633 27.2344C58.9586 27.2344 58.2281 27.0742 57.5719 26.7539C56.9234 26.4258 56.4078 25.9766 56.025 25.4062C55.65 24.8281 55.4625 24.1719 55.4625 23.4375C55.4625 22.7734 55.5875 22.1836 55.8375 21.668C56.0875 21.1523 56.4547 20.7188 56.9391 20.3672C57.4312 20.0078 58.0445 19.7383 58.7789 19.5586C59.5133 19.3711 60.3648 19.2773 61.3336 19.2773H63.2906ZM74.8078 9V27H71.4211V9H74.8078ZM87.4969 23.9648V14.3203H90.8719V27H87.6961L87.4969 23.9648ZM87.8719 21.3633L88.868 21.3398C88.868 22.1836 88.7703 22.9688 88.575 23.6953C88.3797 24.4141 88.0867 25.0391 87.6961 25.5703C87.3055 26.0938 86.8133 26.5039 86.2195 26.8008C85.6258 27.0898 84.9266 27.2344 84.1219 27.2344C83.5047 27.2344 82.9344 27.1484 82.4109 26.9766C81.8953 26.7969 81.45 26.5195 81.075 26.1445C80.7078 25.7617 80.4187 25.2734 80.2078 24.6797C80.0047 24.0781 79.9031 23.3555 79.9031 22.5117V14.3203H83.2781V22.5352C83.2781 22.9102 83.3211 23.2266 83.407 23.4844C83.5008 23.7422 83.6297 23.9531 83.7937 24.1172C83.9578 24.2812 84.1492 24.3984 84.368 24.4688C84.5945 24.5391 84.8445 24.5742 85.118 24.5742C85.8133 24.5742 86.3602 24.4336 86.7586 24.1523C87.1648 23.8711 87.45 23.4883 87.6141 23.0039C87.7859 22.5117 87.8719 21.9648 87.8719 21.3633ZM102.705 23.4961C102.705 23.2539 102.635 23.0352 102.495 22.8398C102.354 22.6445 102.092 22.4648 101.709 22.3008C101.334 22.1289 100.791 21.9727 100.08 21.832C99.4398 21.6914 98.8422 21.5156 98.2875 21.3047C97.7406 21.0859 97.2641 20.8242 96.8578 20.5195C96.4594 20.2148 96.1469 19.8555 95.9203 19.4414C95.6937 19.0195 95.5805 18.5391 95.5805 18C95.5805 17.4688 95.6937 16.9688 95.9203 16.5C96.1547 16.0312 96.4867 15.6172 96.9164 15.2578C97.3539 14.8906 97.8852 14.6055 98.5102 14.4023C99.143 14.1914 99.8539 14.0859 100.643 14.0859C101.745 14.0859 102.69 14.2617 103.479 14.6133C104.276 14.9648 104.885 15.4492 105.307 16.0664C105.737 16.6758 105.952 17.3711 105.952 18.1523H102.577C102.577 17.8242 102.506 17.5312 102.366 17.2734C102.233 17.0078 102.022 16.8008 101.733 16.6523C101.452 16.4961 101.084 16.418 100.631 16.418C100.256 16.418 99.932 16.4844 99.6586 16.6172C99.3852 16.7422 99.1742 16.9141 99.0258 17.1328C98.8852 17.3438 98.8148 17.5781 98.8148 17.8359C98.8148 18.0312 98.8539 18.207 98.932 18.3633C99.018 18.5117 99.1547 18.6484 99.3422 18.7734C99.5297 18.8984 99.7719 19.0156 100.069 19.125C100.373 19.2266 100.748 19.3203 101.194 19.4062C102.108 19.5938 102.924 19.8398 103.643 20.1445C104.362 20.4414 104.932 20.8477 105.354 21.3633C105.776 21.8711 105.987 22.5391 105.987 23.3672C105.987 23.9297 105.862 24.4453 105.612 24.9141C105.362 25.3828 105.002 25.793 104.534 26.1445C104.065 26.4883 103.502 26.7578 102.846 26.9531C102.198 27.1406 101.467 27.2344 100.655 27.2344C99.475 27.2344 98.475 27.0234 97.6547 26.6016C96.8422 26.1797 96.225 25.6445 95.8031 24.9961C95.3891 24.3398 95.182 23.668 95.182 22.9805H98.3812C98.3969 23.4414 98.5141 23.8125 98.7328 24.0938C98.9594 24.375 99.2445 24.5781 99.5883 24.7031C99.9398 24.8281 100.319 24.8906 100.725 24.8906C101.162 24.8906 101.526 24.832 101.815 24.7148C102.104 24.5898 102.323 24.4258 102.471 24.2227C102.627 24.0117 102.705 23.7695 102.705 23.4961ZM114.141 14.3203V27H110.754V14.3203H114.141ZM110.543 11.0156C110.543 10.5234 110.715 10.1172 111.059 9.79688C111.402 9.47656 111.863 9.31641 112.441 9.31641C113.012 9.31641 113.469 9.47656 113.812 9.79688C114.164 10.1172 114.34 10.5234 114.34 11.0156C114.34 11.5078 114.164 11.9141 113.812 12.2344C113.469 12.5547 113.012 12.7148 112.441 12.7148C111.863 12.7148 111.402 12.5547 111.059 12.2344C110.715 11.9141 110.543 11.5078 110.543 11.0156ZM126.173 24.1406V18.4922C126.173 18.0859 126.107 17.7383 125.974 17.4492C125.841 17.1523 125.634 16.9219 125.353 16.7578C125.08 16.5938 124.724 16.5117 124.287 16.5117C123.912 16.5117 123.587 16.5781 123.314 16.7109C123.041 16.8359 122.83 17.0195 122.681 17.2617C122.533 17.4961 122.459 17.7734 122.459 18.0938H119.084C119.084 17.5547 119.209 17.043 119.459 16.5586C119.709 16.0742 120.072 15.6484 120.548 15.2812C121.025 14.9062 121.591 14.6133 122.248 14.4023C122.912 14.1914 123.654 14.0859 124.474 14.0859C125.459 14.0859 126.334 14.25 127.099 14.5781C127.865 14.9062 128.466 15.3984 128.904 16.0547C129.349 16.7109 129.572 17.5312 129.572 18.5156V23.9414C129.572 24.6367 129.615 25.207 129.701 25.6523C129.787 26.0898 129.912 26.4727 130.076 26.8008V27H126.666C126.502 26.6562 126.377 26.2266 126.291 25.7109C126.212 25.1875 126.173 24.6641 126.173 24.1406ZM126.619 19.2773L126.642 21.1875H124.755C124.31 21.1875 123.923 21.2383 123.595 21.3398C123.267 21.4414 122.998 21.5859 122.787 21.7734C122.576 21.9531 122.42 22.1641 122.318 22.4062C122.224 22.6484 122.177 22.9141 122.177 23.2031C122.177 23.4922 122.244 23.7539 122.377 23.9883C122.509 24.2148 122.701 24.3945 122.951 24.5273C123.201 24.6523 123.494 24.7148 123.83 24.7148C124.337 24.7148 124.779 24.6133 125.154 24.4102C125.529 24.207 125.818 23.957 126.021 23.6602C126.232 23.3633 126.341 23.082 126.349 22.8164L127.24 24.2461C127.115 24.5664 126.943 24.8984 126.724 25.2422C126.513 25.5859 126.244 25.9102 125.916 26.2148C125.587 26.5117 125.193 26.7578 124.732 26.9531C124.271 27.1406 123.724 27.2344 123.091 27.2344C122.287 27.2344 121.556 27.0742 120.9 26.7539C120.252 26.4258 119.736 25.9766 119.353 25.4062C118.978 24.8281 118.791 24.1719 118.791 23.4375C118.791 22.7734 118.916 22.1836 119.166 21.668C119.416 21.1523 119.783 20.7188 120.267 20.3672C120.759 20.0078 121.373 19.7383 122.107 19.5586C122.841 19.3711 123.693 19.2773 124.662 19.2773H126.619Z" fill="#C65D21"/>
<path d="M150.157 9.9375V27H146.653V9.9375H150.157ZM155.407 9.9375V12.6914H141.485V9.9375H155.407ZM157.022 20.7891V20.543C157.022 19.6133 157.155 18.7578 157.42 17.9766C157.686 17.1875 158.073 16.5039 158.58 15.9258C159.088 15.3477 159.713 14.8984 160.455 14.5781C161.198 14.25 162.049 14.0859 163.01 14.0859C163.971 14.0859 164.827 14.25 165.577 14.5781C166.327 14.8984 166.955 15.3477 167.463 15.9258C167.979 16.5039 168.37 17.1875 168.635 17.9766C168.901 18.7578 169.034 19.6133 169.034 20.543V20.7891C169.034 21.7109 168.901 22.5664 168.635 23.3555C168.37 24.1367 167.979 24.8203 167.463 25.4062C166.955 25.9844 166.33 26.4336 165.588 26.7539C164.846 27.0742 163.995 27.2344 163.034 27.2344C162.073 27.2344 161.217 27.0742 160.467 26.7539C159.725 26.4336 159.096 25.9844 158.58 25.4062C158.073 24.8203 157.686 24.1367 157.42 23.3555C157.155 22.5664 157.022 21.7109 157.022 20.7891ZM160.397 20.543V20.7891C160.397 21.3203 160.444 21.8164 160.537 22.2773C160.631 22.7383 160.78 23.1445 160.983 23.4961C161.194 23.8398 161.467 24.1094 161.803 24.3047C162.139 24.5 162.549 24.5977 163.034 24.5977C163.502 24.5977 163.905 24.5 164.241 24.3047C164.577 24.1094 164.846 23.8398 165.049 23.4961C165.252 23.1445 165.401 22.7383 165.495 22.2773C165.596 21.8164 165.647 21.3203 165.647 20.7891V20.543C165.647 20.0273 165.596 19.543 165.495 19.0898C165.401 18.6289 165.248 18.2227 165.037 17.8711C164.834 17.5117 164.565 17.2305 164.229 17.0273C163.893 16.8242 163.487 16.7227 163.01 16.7227C162.534 16.7227 162.127 16.8242 161.791 17.0273C161.463 17.2305 161.194 17.5117 160.983 17.8711C160.78 18.2227 160.631 18.6289 160.537 19.0898C160.444 19.543 160.397 20.0273 160.397 20.543ZM181.008 23.9648V14.3203H184.383V27H181.207L181.008 23.9648ZM181.383 21.3633L182.379 21.3398C182.379 22.1836 182.281 22.9688 182.086 23.6953C181.891 24.4141 181.598 25.0391 181.207 25.5703C180.816 26.0938 180.324 26.5039 179.73 26.8008C179.137 27.0898 178.438 27.2344 177.633 27.2344C177.016 27.2344 176.445 27.1484 175.922 26.9766C175.406 26.7969 174.961 26.5195 174.586 26.1445C174.219 25.7617 173.93 25.2734 173.719 24.6797C173.516 24.0781 173.414 23.3555 173.414 22.5117V14.3203H176.789V22.5352C176.789 22.9102 176.832 23.2266 176.918 23.4844C177.012 23.7422 177.141 23.9531 177.305 24.1172C177.469 24.2812 177.66 24.3984 177.879 24.4688C178.105 24.5391 178.355 24.5742 178.629 24.5742C179.324 24.5742 179.871 24.4336 180.27 24.1523C180.676 23.8711 180.961 23.4883 181.125 23.0039C181.297 22.5117 181.383 21.9648 181.383 21.3633ZM192.736 17.0859V27H189.361V14.3203H192.537L192.736 17.0859ZM196.556 14.2383L196.498 17.3672C196.334 17.3438 196.134 17.3242 195.9 17.3086C195.673 17.2852 195.466 17.2734 195.279 17.2734C194.802 17.2734 194.388 17.3359 194.037 17.4609C193.693 17.5781 193.404 17.7539 193.17 17.9883C192.943 18.2227 192.771 18.5078 192.654 18.8438C192.545 19.1797 192.482 19.5625 192.466 19.9922L191.787 19.7812C191.787 18.9609 191.869 18.207 192.033 17.5195C192.197 16.8242 192.435 16.2188 192.748 15.7031C193.068 15.1875 193.459 14.7891 193.92 14.5078C194.38 14.2266 194.908 14.0859 195.502 14.0859C195.689 14.0859 195.88 14.1016 196.076 14.1328C196.271 14.1562 196.431 14.1914 196.556 14.2383Z" fill="#222222"/>
</g>
<defs>
<filter id="filter0_d_5_5" x="1.3931" y="9" width="198.615" height="25.1372" filterUnits="userSpaceOnUse" color-interpolation-filters="sRGB">
<feFlood flood-opacity="0" result="BackgroundImageFix"/>
<feColorMatrix in="SourceAlpha" type="matrix" values="0 0 0 0 0 0 0 0 0 0 0 0 0 0 0 0 0 0 127 0" result="hardAlpha"/>
<feOffset dy="3.45143"/>
<feGaussianBlur stdDeviation="1.72571"/>
<feColorMatrix type="matrix" values="0 0 0 0 0 0 0 0 0 0 0 0 0 0 0 0 0 0 0.25 0"/>
<feBlend mode="normal" in2="BackgroundImageFix" result="effect1_dropShadow_5_5"/>
<feBlend mode="normal" in="SourceGraphic" in2="effect1_dropShadow_5_5" result="shape"/>
</filter>
</defs>
</svg>
